<mxfile host="app.diagrams.net" agent="Mozilla/5.0 (Windows NT 10.0; Win64; x64) AppleWebKit/537.36 (KHTML, like Gecko) Chrome/128.0.0.0 Safari/537.36" version="24.7.16">
  <diagram name="第 1 页" id="UG0YMzA9eMdiBVnE-49O">
    <mxGraphModel dx="1434" dy="738" grid="1" gridSize="10" guides="1" tooltips="1" connect="1" arrows="1" fold="1" page="1" pageScale="1" pageWidth="827" pageHeight="1169" math="0" shadow="0">
      <root>
        <mxCell id="0" />
        <mxCell id="1" parent="0" />
        <mxCell id="vw6U1GoPQnJPo7Tv32jx-3" value="" style="edgeStyle=orthogonalEdgeStyle;rounded=0;orthogonalLoop=1;jettySize=auto;html=1;" parent="1" source="vw6U1GoPQnJPo7Tv32jx-1" target="vw6U1GoPQnJPo7Tv32jx-2" edge="1">
          <mxGeometry relative="1" as="geometry" />
        </mxCell>
        <mxCell id="vw6U1GoPQnJPo7Tv32jx-1" value="&lt;font style=&quot;font-size: 24px;&quot;&gt;預約登記&lt;/font&gt;" style="ellipse;whiteSpace=wrap;html=1;" parent="1" vertex="1">
          <mxGeometry x="320" y="80" width="160" height="120" as="geometry" />
        </mxCell>
        <mxCell id="vw6U1GoPQnJPo7Tv32jx-5" value="" style="edgeStyle=orthogonalEdgeStyle;rounded=0;orthogonalLoop=1;jettySize=auto;html=1;" parent="1" source="vw6U1GoPQnJPo7Tv32jx-2" target="vw6U1GoPQnJPo7Tv32jx-4" edge="1">
          <mxGeometry relative="1" as="geometry" />
        </mxCell>
        <mxCell id="vw6U1GoPQnJPo7Tv32jx-2" value="&lt;font style=&quot;font-size: 24px;&quot;&gt;建立基礎資料&lt;/font&gt;" style="whiteSpace=wrap;html=1;" parent="1" vertex="1">
          <mxGeometry x="310" y="270" width="180" height="90" as="geometry" />
        </mxCell>
        <mxCell id="vw6U1GoPQnJPo7Tv32jx-7" value="" style="edgeStyle=orthogonalEdgeStyle;rounded=0;orthogonalLoop=1;jettySize=auto;html=1;" parent="1" source="vw6U1GoPQnJPo7Tv32jx-4" edge="1">
          <mxGeometry relative="1" as="geometry">
            <mxPoint x="400" y="610" as="targetPoint" />
          </mxGeometry>
        </mxCell>
        <mxCell id="vw6U1GoPQnJPo7Tv32jx-4" value="建立預估時間" style="whiteSpace=wrap;html=1;fontSize=24;" parent="1" vertex="1">
          <mxGeometry x="310" y="440" width="180" height="90" as="geometry" />
        </mxCell>
        <mxCell id="SXnoR2Kjsc8ZXZo4q6vy-2" value="&lt;font style=&quot;font-size: 24px;&quot;&gt;預約登記&lt;/font&gt;" style="ellipse;whiteSpace=wrap;html=1;" vertex="1" parent="1">
          <mxGeometry x="320" y="620" width="160" height="120" as="geometry" />
        </mxCell>
      </root>
    </mxGraphModel>
  </diagram>
</mxfile>
